# xmcd
# 
# Track frame offsets:
#     150
#     22015
#     41361
#     61431
#     82101
#     101239
#     118808
#     142231
#     160389
#     175285
#     194476
#     215759
#     238014
# 
# Disc length: 3434
# 
# Revision: 0
# Processed by: cddbd v1.5.2PL0 Copyright (c) Steve Scherf et al.
# Submitted via: BonkEnc v1.0rc2
# 
DISCID=cb0d680d
DTITLE=Crystal Kay - almost seventeen
DYEAR=2003
DGENRE=R&B
TTITLE0=hard to say
TTITLE1=Missin' U,baby
TTITLE2=Girl U Love
TTITLE3=Shooting star dust
TTITLE4=Boyfriend(What Makes Me Fall In Love)
TTITLE5=Hide'n'Seek
TTITLE6=You're my fate
TTITLE7=Love of A Lifetime
TTITLE8=Attitude
TTITLE9=move on
TTITLE10=Song For You,A
TTITLE11=think of U
TTITLE12=Feel The Same?
EXTD=
EXTT0=
EXTT1=
EXTT2=
EXTT3=
EXTT4=
EXTT5=
EXTT6=
EXTT7=
EXTT8=
EXTT9=
EXTT10=
EXTT11=
EXTT12=
PLAYORDER=
